<svg width="507" height="469" viewBox="0 0 507 469" fill="none" xmlns="http://www.w3.org/2000/svg">
<g clip-path="url(#clip0_93_78)">
<path opacity="0.18" d="M108.139 68.6484C142.076 62.6011 177.018 66.7663 210.665 58.4668C245.858 49.7816 277.909 27.9221 311.833 13.4057C345.757 -1.1108 384.934 -7.63626 416.407 13.637C435.675 26.6725 449.853 48.748 460.977 72.1039C482.901 118.163 494.784 170.38 495.479 223.717C495.793 250.158 493.292 276.784 486.68 301.961C464.584 386.097 397.704 444.333 327.18 462.289C249.729 482.02 165.517 457.97 102.973 398.562C49.7186 347.886 -2.94559 257.532 15.1161 175.231C27.0944 120.497 57.26 77.7192 108.139 68.6484Z" fill="#424DBA"/>
<path d="M374.351 293.97L335.714 329.065C334.892 329.811 333.862 330.126 332.851 329.94C331.841 329.755 330.931 329.085 330.322 328.078L314.296 301.498C313.994 301.003 313.78 300.435 313.668 299.832C313.48 298.925 313.516 297.97 313.771 297.089C314.026 296.207 314.489 295.438 315.101 294.88L353.75 259.784C354.207 259.372 354.732 259.088 355.288 258.952C355.844 258.816 356.418 258.832 356.968 258.998C357.836 259.269 358.603 259.895 359.143 260.772L375.168 287.367C375.468 287.866 375.684 288.433 375.806 289.035C375.927 289.638 375.95 290.263 375.874 290.876C375.798 291.489 375.625 292.078 375.363 292.609C375.102 293.14 374.758 293.602 374.351 293.97Z" fill="#818CF8"/>
<path d="M356.968 258.998L349.816 298.428L313.668 299.832C313.48 298.925 313.516 297.97 313.771 297.089C314.026 296.207 314.489 295.438 315.101 294.88L353.75 259.784C354.207 259.372 354.732 259.088 355.288 258.952C355.844 258.816 356.418 258.832 356.968 258.998Z" fill="url(#paint0_linear_93_78)"/>
<path d="M336.845 298.937L338.027 326.952L374.351 293.97L352.368 284.328L349.816 298.428L336.845 298.937Z" fill="url(#paint1_linear_93_78)"/>
<path d="M381.541 69.6048L338.379 145.087L330.083 116.841C301.436 126.18 273.234 137.464 245.607 150.641C213.757 166.206 183.088 185.551 174.278 205.544C154.079 251.469 201.527 271.771 201.527 271.771C192.5 272.657 183.423 272.388 174.441 270.968C150.773 267.158 121.387 253.089 129.896 205.544C136.621 167.98 180.399 136.387 223.41 113.879H223.473C229.757 110.609 236.042 107.539 242.15 104.623L242.326 104.531C265.336 93.7325 288.803 84.4631 312.625 76.7628L308.489 52.0493L381.541 69.6048Z" fill="#818CF8"/>
<path d="M174.278 205.544C154.079 251.469 201.527 271.771 201.527 271.771C192.5 272.657 183.423 272.388 174.441 270.969C170.885 265.887 167.561 260.567 164.486 255.033C137.249 206.408 195.67 168.088 195.67 168.088C200.534 146.291 223.41 128.257 223.41 128.257V113.879H223.473L242.15 104.623L242.326 104.531L246.436 146.676L245.607 150.61C213.757 166.206 183.088 185.551 174.278 205.544Z" fill="url(#paint2_linear_93_78)"/>
<path d="M306.73 364.13C305.579 366.531 304.867 369.21 304.643 371.982C304.682 374.757 305.415 377.449 306.742 379.695C309.47 384.662 313.652 388.148 318.419 389.43C319.043 389.665 319.714 389.626 320.317 389.322C320.73 389.011 321.052 388.546 321.234 387.995C322.378 385.141 321.913 381.747 321.159 378.739C320.405 375.731 319.374 372.676 319.487 369.483C319.676 363.513 326.626 351.989 318.532 349.182C311.783 346.775 308.879 358.808 306.73 364.13Z" fill="#B2857F"/>
<path d="M301.979 371.92C301.979 371.92 299.591 374.327 300.043 376.98C300.496 379.634 309.08 398.13 321.31 396.017C333.539 393.903 313.454 379.048 313.454 379.048L301.979 371.92Z" fill="#818CF8"/>
<path d="M305.674 365.086C306.175 365.109 306.653 365.352 307.02 365.771C307.387 366.19 307.618 366.758 307.673 367.37C307.992 369.132 308.671 370.765 309.648 372.114C310.624 373.464 311.865 374.486 313.253 375.083C316.446 376.147 319.362 372.877 320.795 373.802C322.227 374.728 326.25 387.609 325.194 391.281C324.138 394.952 319.186 394.86 314.787 392.345C310.387 389.831 302.368 379.788 301.752 375.823C301.137 371.859 303.927 366.151 305.674 365.086Z" fill="#F5F5F5"/>
<path d="M254.87 385.465C253.684 388.202 252.998 391.224 252.859 394.32C253.032 397.374 253.952 400.294 255.498 402.696C258.726 408.066 263.516 411.701 268.872 412.847C269.572 413.074 270.315 412.992 270.971 412.616C271.413 412.23 271.754 411.694 271.951 411.073C273.108 407.833 272.441 404.085 271.499 400.753C270.556 397.42 269.299 394.135 269.249 390.617C269.249 383.984 276.501 370.732 267.401 368.094C259.797 365.888 257.032 379.433 254.87 385.465Z" fill="#B2857F"/>
<path d="M249.88 394.52C249.88 394.52 247.366 397.343 247.932 400.259C248.498 403.175 258.779 423.245 272.303 420.159C285.827 417.074 262.927 401.879 262.927 401.879L249.88 394.52Z" fill="#818CF8"/>
<path d="M253.714 386.622C254.276 386.615 254.821 386.857 255.249 387.306C255.676 387.754 255.957 388.377 256.039 389.059C256.459 390.994 257.277 392.763 258.415 394.198C259.553 395.632 260.973 396.684 262.537 397.251C266.132 398.238 269.262 394.459 270.845 395.384C272.429 396.31 277.457 410.425 276.401 414.544C275.345 418.663 269.852 418.879 264.862 416.349C259.872 413.819 250.559 403.113 249.78 398.747C249 394.382 251.816 387.918 253.714 386.622Z" fill="#F5F5F5"/>
<path d="M281.981 224.581C282.323 224.654 282.66 224.762 282.987 224.905C290.931 228.607 300.496 245.113 305.9 252.95C312.926 262.875 318.774 273.968 323.271 285.901C332.396 310.908 333.238 341.977 320.417 364.407L310.563 361.877C309.703 361.761 308.892 361.325 308.238 360.628C307.902 360.023 307.669 359.34 307.555 358.622C307.44 357.903 307.446 357.163 307.572 356.447C308.092 347.807 307.768 339.122 306.604 330.577C305.954 324.72 304.491 319.044 302.28 313.793C299.188 306.959 294.312 301.667 289.561 296.484C274.478 280.086 260.953 263.132 253.475 239.946C260.224 235.873 274.704 223.007 281.981 224.581Z" fill="#473F47"/>
<path d="M259.156 237.169C259.481 237.328 259.789 237.535 260.074 237.786C267.1 243.648 273.271 262.469 277.042 271.601C281.98 283.271 285.56 295.734 287.675 308.625C291.785 335.544 286.72 365.997 269.991 384.215L260.878 378.924C260.067 378.564 259.362 377.913 258.854 377.057C258.643 376.37 258.548 375.636 258.574 374.902C258.6 374.168 258.746 373.447 259.005 372.784C261.155 364.531 262.488 355.99 262.977 347.346C263.459 341.466 263.114 335.527 261.959 329.79C260.262 322.278 256.517 315.737 252.884 309.319C241.383 289.079 231.404 268.701 228.538 244.018C235.866 241.982 252.394 233.621 259.156 237.169Z" fill="#473F47"/>
<path d="M300.093 178.409C300.1 178.475 300.1 178.543 300.093 178.609C300.206 181.186 300.898 183.453 300.357 186.076C299.779 188.991 297.567 191.629 295.154 191.197C293.143 190.843 291.773 188.621 290.227 187.001C288.609 185.411 286.814 184.113 284.897 183.145C282.384 181.71 279.794 180.368 277.205 179.134C275.546 178.332 272.379 177.838 271.675 175.755C270.971 173.673 271.197 170.387 270.996 168.181L267.866 133.178L296.989 162.489C298.183 165.694 299.114 169.037 299.767 172.47C300.045 174.43 300.154 176.42 300.093 178.409Z" fill="#FFE816"/>
<path d="M278.475 182.265C278.651 184.333 279.04 186.384 279.241 188.436C280.297 199.836 279.153 211.915 282.924 222.729C283.779 225.136 284.885 227.697 284.382 230.258C283.768 232.428 282.53 234.249 280.9 235.379C273.208 241.982 263.869 244.928 254.769 247.721C247.919 249.849 238.279 253.722 231.441 249.988C228.525 248.446 227.268 244.867 226.074 241.349C222.304 230.15 220.318 217.808 218.533 205.868C218.307 204.326 218.068 202.783 217.854 201.163C216.371 190.395 215.211 179.535 214.373 168.582C213.794 160.622 213.531 151.983 217.226 145.442C222.128 136.711 232.51 130.016 240.592 126.93C243.205 125.898 245.928 125.341 248.673 125.28C252.585 125.504 256.436 126.547 260.061 128.365C264.372 130.293 268.206 131.898 270.657 136.587C273.374 142.035 275.456 147.924 276.841 154.081C278.145 159.847 278.792 165.807 278.764 171.791C278.764 174.722 278.437 177.684 278.449 180.599C278.41 181.154 278.418 181.713 278.475 182.265Z" fill="#FFE816"/>
<path opacity="0.1" d="M246.298 251.994C243.684 253.336 237.198 251.13 235.099 250.96C233.842 250.868 232.585 250.251 231.328 250.065C225.044 249.001 222.367 227.867 221.273 222.298C218.332 207.411 214.486 192.108 212.952 176.99C212.374 171.143 211.959 165.173 213.028 159.449C214.096 153.726 216.798 148.203 221.135 145.565C228.676 141.03 233.767 171.251 235.413 177.421C237.475 185.135 239.548 192.848 241.597 200.561C242.502 204.017 242.791 207.858 244.337 211.021C246.688 215.818 248.673 214.908 252.608 214.106C260.865 212.347 268.583 208.043 276.715 205.637C277.049 205.483 277.406 205.415 277.762 205.436C278.119 205.458 278.468 205.568 278.789 205.76C279.227 206.202 279.525 206.819 279.631 207.503C280.11 209.451 280.372 211.47 280.41 213.504C280.458 214.087 280.389 214.675 280.209 215.217C279.925 215.77 279.532 216.227 279.065 216.543C273.569 221.006 267.533 224.374 261.18 226.524C256.152 228.252 251.388 231.152 247.995 236.305C244.94 240.933 248.912 245.808 247.253 250.821C247.167 251.086 247.037 251.326 246.873 251.527C246.709 251.729 246.513 251.887 246.298 251.994Z" fill="#020202"/>
<path d="M240.566 228.684L288.756 208.738L324.1 233.482L274.918 258.226L240.566 228.684Z" fill="#818CF8"/>
<path d="M240.566 228.684L288.756 208.738L324.1 233.482L274.918 258.226L240.566 228.684Z" fill="url(#paint3_linear_93_78)"/>
<path d="M242.552 225.491L290.742 205.544L326.086 230.288L276.904 255.033L242.552 225.491Z" fill="#818CF8"/>
<path d="M279.266 251.624L319.135 230.011L299.679 216.898L260.036 235.318L279.266 251.624Z" fill="url(#paint4_linear_93_78)"/>
<path d="M276.904 255.033H324.427L365.339 223.763L326.086 230.289L276.904 255.033Z" fill="#818CF8"/>
<path d="M260.689 111.704C260.199 113.879 259.671 116.054 259.106 118.214C257.849 123.151 255.335 127.655 250.961 128.843C249.994 129.071 249.016 129.216 248.032 129.275C247.844 129.275 247.63 129.275 247.379 129.275C247.365 129.283 247.35 129.287 247.335 129.287C247.32 129.287 247.305 129.283 247.291 129.275H247.178C246.687 129.247 246.195 129.309 245.72 129.46C245.587 129.469 245.457 129.516 245.343 129.599C244.086 130.309 244.186 132.808 244.274 134.227C244.584 135.824 244.433 137.503 243.847 138.978C243.847 138.978 243.847 139.071 243.772 139.133C243.423 139.599 243.003 139.976 242.534 140.241C242.066 140.505 241.559 140.653 241.044 140.675C238.877 140.89 236.724 140.085 235.024 138.423C234.05 137.314 233.268 135.976 232.723 134.489C232.553 134.067 232.41 133.628 232.296 133.178C232.153 132.415 232.098 131.63 232.133 130.848C232.156 129.649 232.248 128.453 232.409 127.269C232.873 124.934 233.238 122.57 233.503 120.189C233.519 118.982 233.586 117.777 233.704 116.579C233.865 115.813 233.982 115.035 234.056 114.249C234.056 111.982 233.113 109.791 233.1 107.493C233.084 105.219 233.256 102.95 233.616 100.72C234.286 96.297 235.856 92.153 238.178 88.6721C242.49 82.5014 250.131 79.4161 256.139 82.9334C259.142 84.6915 261.471 87.8105 262.638 91.634C264.649 98.1286 262.135 105.364 260.689 111.704Z" fill="#B2857F"/>
<path d="M254.43 223.069C255.486 222.915 256.554 222.776 257.61 222.668C258.24 222.559 258.881 222.606 259.495 222.807C259.798 222.904 260.073 223.098 260.294 223.369C260.515 223.64 260.673 223.978 260.752 224.349C260.746 224.631 260.793 224.911 260.891 225.167C261.052 225.395 261.275 225.544 261.519 225.583C265.29 226.787 269.186 228.669 271.436 232.479C271.704 232.84 271.891 233.279 271.979 233.755C272.067 234.231 272.053 234.727 271.939 235.194C271.423 236.49 269.915 236.305 268.784 235.919C268.946 236.204 269.033 236.543 269.033 236.891C269.033 237.239 268.946 237.578 268.784 237.863C268.615 238.143 268.392 238.368 268.136 238.518C267.88 238.669 267.597 238.74 267.313 238.727C266.939 238.642 266.556 238.642 266.182 238.727C265.926 238.873 265.689 239.066 265.478 239.298C264.949 239.727 264.354 240.019 263.729 240.157C263.105 240.295 262.464 240.276 261.846 240.1C260.589 239.868 259.332 239.344 258.075 239.221C256.127 239.035 254.38 239.822 252.57 238.85C250.574 237.638 248.463 236.736 246.285 236.166C245.593 236.03 244.954 235.624 244.463 235.009C244.251 234.487 244.141 233.911 244.141 233.328C244.141 232.744 244.251 232.169 244.463 231.646C244.788 229.753 245.375 227.943 246.197 226.293C247.266 224.442 249.051 224.118 250.798 223.748C252.08 223.485 253.224 223.285 254.43 223.069Z" fill="#B2857F"/>
<path d="M217.201 145.427C207.962 164.201 198.837 185.952 196.21 207.827C195.519 213.582 195.142 220.369 197.342 225.769C200.936 234.562 213.166 236.274 220.205 237.153C228.633 238.202 237.121 238.342 245.569 237.57C245.754 237.613 245.944 237.599 246.124 237.53C246.303 237.461 246.466 237.339 246.598 237.174C246.73 237.009 246.826 236.807 246.879 236.585C246.932 236.364 246.94 236.13 246.901 235.904L247.253 225.923C247.311 225.457 247.259 224.98 247.102 224.55C246.882 224.235 246.605 223.989 246.292 223.831C245.98 223.673 245.642 223.607 245.305 223.64C240.382 223.156 235.545 221.778 230.951 219.552C226.59 217.423 218.068 211.838 218.684 204.804C219.023 200.855 222.555 196.041 224.302 192.925C228.5 185.443 233.025 178.193 237.65 171.097C237.65 171.097 238.103 130.725 217.201 145.427Z" fill="#FFE816"/>
<path d="M259.244 102.633C259.869 102.456 260.457 102.118 260.968 101.642C261.479 101.166 261.902 100.563 262.21 99.8719C262.726 101.646 265.164 101.106 265.78 99.3628C266.396 97.6196 265.78 95.645 265.227 93.9018C265.804 93.735 266.339 93.3942 266.782 92.9102C267.225 92.4263 267.563 91.8145 267.765 91.13C267.967 90.4456 268.027 89.7101 267.939 88.9901C267.852 88.2701 267.619 87.5882 267.263 87.0061C266.848 86.4353 266.27 85.9417 266.157 85.1703C266.13 84.5825 266.203 83.9941 266.371 83.4426C266.449 82.5369 266.331 81.6219 266.029 80.7903C265.726 79.9586 265.25 79.2398 264.649 78.7066C263.413 77.6605 262.033 76.8974 260.576 76.4543C260.968 75.6735 261.113 74.7443 260.986 73.8412C260.859 72.938 260.467 72.1228 259.885 71.5486C258.693 70.4317 257.248 69.7957 255.75 69.7283C253.575 69.4352 251.175 69.5586 249.465 71.271C248.298 70.3818 246.923 69.9962 245.556 70.175C244.19 70.3538 242.912 71.087 241.924 72.2583C241.573 72.8557 241.082 73.3077 240.516 73.5541C240.112 73.5899 239.707 73.5052 239.335 73.3073C237.75 72.4754 235.996 72.2548 234.307 72.6748C233.463 72.9219 232.725 73.5485 232.238 74.431C231.752 75.3135 231.553 76.3877 231.68 77.4416C231.056 77.5336 230.47 77.8579 230 78.3708C229.531 78.8837 229.2 79.5608 229.053 80.3109C229.025 80.7815 228.904 81.2366 228.701 81.6376C228.337 82.1621 227.696 82.1313 227.155 82.193C226.124 82.3032 225.165 82.8867 224.47 83.8269C223.774 84.7671 223.393 85.9948 223.402 87.2649C223.412 88.535 223.811 89.7539 224.521 90.6782C225.231 91.6025 226.198 92.1642 227.231 92.2511C227.112 92.871 227.099 93.5142 227.192 94.1407C227.285 94.7671 227.482 95.3633 227.771 95.8918C228.437 97.2031 229.33 97.2957 230.21 98.1133C230.725 98.6069 230.524 98.6532 230.499 99.6559C230.473 100.579 230.511 101.502 230.612 102.417C230.783 104.18 231.143 105.907 231.68 107.554C232.057 108.742 232.535 109.884 232.874 111.087C233.342 112.93 233.653 114.827 233.804 116.749L235.929 109.375C235.952 109.274 235.952 109.167 235.929 109.066C235.886 108.929 235.806 108.815 235.702 108.742C234.776 107.856 234.124 106.609 233.854 105.206C233.585 103.803 233.713 102.33 234.219 101.029C234.36 100.621 234.585 100.265 234.871 99.9944C235.157 99.7242 235.496 99.5491 235.853 99.4862C236.708 99.4862 237.361 100.396 237.776 101.307C238.218 102.276 238.551 103.314 238.769 104.392C239.344 102.704 240.138 101.141 241.12 99.7639C241.534 99.1931 242.037 98.2213 242.703 98.5144C243.369 98.8075 243.684 100.288 243.96 100.828C244.95 100.356 245.852 99.6419 246.612 98.7303C246.525 99.8009 246.689 100.88 247.085 101.839C247.482 102.799 248.094 103.599 248.849 104.145C250.433 105.055 252.733 103.759 252.733 101.6C252.733 102.572 256.165 100.936 256.416 100.751C256.681 101.375 257.092 101.887 257.596 102.222C258.1 102.558 258.674 102.701 259.244 102.633Z" fill="#473F47"/>
<path d="M242.665 129.352C243.678 129.515 244.7 129.567 245.72 129.506C245.587 129.515 245.457 129.563 245.343 129.645C244.086 130.355 244.186 132.854 244.274 134.273C244.584 135.87 244.433 137.549 243.847 139.025C243.456 139.028 243.066 138.961 242.691 138.824C242.306 138.658 241.952 138.401 241.647 138.068C240.508 136.916 239.674 135.373 239.253 133.636C238.832 131.899 238.843 130.048 239.284 128.319C240.373 128.832 241.508 129.18 242.665 129.352Z" fill="#96625E"/>
<path d="M292.477 157.969C292.477 157.969 315.49 178.81 312.31 199.62C309.357 218.981 306.705 234.377 306.705 234.377L295.933 226.663C295.933 226.663 303.135 197.491 288.103 184.811C273.07 172.13 292.477 157.969 292.477 157.969Z" fill="#FFE816"/>
<path d="M294.023 226.37L292.992 232.927C292.81 233.757 292.785 234.627 292.916 235.472C292.986 235.894 293.169 236.274 293.435 236.554C293.702 236.834 294.037 236.996 294.387 237.015C295.141 237.015 295.782 235.996 296.536 236.182C296.806 236.28 297.06 236.431 297.29 236.629C298.899 237.709 300.847 236.629 302.544 235.657C302.815 235.47 303.129 235.399 303.437 235.457C303.801 235.58 304.027 236.027 304.342 236.305C304.656 236.537 305.02 236.646 305.386 236.619C305.751 236.591 306.102 236.428 306.39 236.151C306.96 235.57 307.394 234.814 307.647 233.96C308.324 232.136 308.617 230.132 308.501 228.133C308.385 226.133 307.862 224.201 306.981 222.514C306.017 221.05 304.75 219.931 303.312 219.275C301.875 218.618 300.321 218.447 298.811 218.78C295.543 219.413 294.613 222.56 294.023 226.37Z" fill="#B2857F"/>
<path d="M274.918 258.226H322.441L363.353 226.956L324.1 233.482L274.918 258.226Z" fill="#818CF8"/>
<path d="M276.904 255.033L274.918 258.226H322.441L324.427 255.033H276.904Z" fill="url(#paint5_linear_93_78)"/>
<path d="M365.339 223.763L363.353 226.956L322.441 258.226L324.427 255.033L365.339 223.763Z" fill="#818CF8"/>
<path d="M365.339 223.763L363.353 226.956L322.441 258.226L324.427 255.033L365.339 223.763Z" fill="url(#paint6_linear_93_78)"/>
<path d="M326.564 231.677L359.067 226.108L325.169 251.624L288.178 252.41L326.564 231.677Z" fill="#F5F5F5"/>
<path d="M271.185 228.221L289.586 219.845L280.712 211.885L261.833 219.845L271.185 228.221Z" fill="url(#paint7_linear_93_78)"/>
<path d="M231.806 314.564L158.792 355.475C157.239 356.344 155.468 356.421 153.868 355.69C152.268 354.958 150.97 353.477 150.258 351.573L131.581 301.343C131.223 300.411 131.03 299.396 131.015 298.366C130.966 296.8 131.299 295.252 131.971 293.92C132.642 292.587 133.622 291.53 134.786 290.884L207.799 249.973C208.665 249.495 209.605 249.256 210.554 249.272C211.503 249.288 212.437 249.559 213.292 250.065C214.636 250.862 215.712 252.21 216.333 253.876L234.986 304.12C235.336 305.062 235.531 306.08 235.561 307.114C235.59 308.149 235.454 309.181 235.158 310.151C234.863 311.12 234.415 312.009 233.84 312.767C233.265 313.524 232.573 314.135 231.806 314.564Z" fill="#818CF8"/>
<path d="M231.806 314.564L158.792 355.475C157.239 356.344 155.468 356.421 153.868 355.69C152.268 354.958 150.97 353.477 150.258 351.573L131.581 301.343C131.223 300.411 131.03 299.396 131.015 298.366C130.966 296.8 131.299 295.252 131.971 293.92C132.642 292.587 133.622 291.53 134.786 290.884L207.799 249.973C208.665 249.495 209.605 249.256 210.554 249.272C211.503 249.288 212.437 249.559 213.292 250.065C214.636 250.862 215.712 252.21 216.333 253.876L234.986 304.12C235.336 305.062 235.531 306.08 235.561 307.114C235.59 308.149 235.454 309.181 235.158 310.151C234.863 311.12 234.415 312.009 233.84 312.767C233.265 313.524 232.573 314.135 231.806 314.564Z" fill="url(#paint8_linear_93_78)"/>
<path d="M235.187 312.759L162.174 353.67C160.62 354.539 158.849 354.616 157.249 353.885C155.649 353.153 154.351 351.672 153.639 349.768L134.962 299.554C134.609 298.619 134.412 297.606 134.383 296.577C134.337 295.009 134.671 293.46 135.342 292.126C136.013 290.791 136.992 289.731 138.154 289.079L211.168 248.183C212.72 247.318 214.489 247.241 216.087 247.969C217.686 248.697 218.985 250.172 219.702 252.071L238.38 302.315C238.729 303.258 238.924 304.276 238.953 305.312C238.981 306.347 238.844 307.379 238.547 308.349C238.251 309.319 237.801 310.208 237.225 310.965C236.648 311.721 235.956 312.331 235.187 312.759Z" fill="#818CF8"/>
<path d="M216.635 248.183L193.835 309.55L134.383 296.5C134.337 294.932 134.671 293.383 135.342 292.049C136.013 290.714 136.992 289.654 138.154 289.002L211.168 248.106C212.027 247.625 212.963 247.382 213.908 247.395C214.853 247.408 215.784 247.678 216.635 248.183Z" fill="url(#paint9_linear_93_78)"/>
<path d="M172.518 304.861L166.548 351.125L235.187 312.682L201.992 287.598L193.835 309.55L172.518 304.861Z" fill="url(#paint10_linear_93_78)"/>
<path d="M391.508 215.047L344.349 203.616C343.853 203.496 343.38 203.257 342.96 202.913C342.539 202.569 342.177 202.126 341.896 201.61C341.614 201.094 341.419 200.516 341.32 199.907C341.221 199.298 341.221 198.671 341.32 198.062L346.536 165.666C346.627 165.059 346.82 164.481 347.101 163.97C347.522 163.185 348.123 162.573 348.828 162.21C349.533 161.848 350.311 161.751 351.061 161.933L398.22 173.364C398.778 173.493 399.305 173.775 399.762 174.189C400.219 174.603 400.594 175.139 400.859 175.755C401.284 176.722 401.426 177.838 401.261 178.918L396.033 211.314C395.936 211.924 395.743 212.505 395.463 213.024C395.183 213.542 394.823 213.988 394.402 214.334C393.982 214.681 393.51 214.923 393.013 215.045C392.516 215.167 392.005 215.168 391.508 215.047Z" fill="#818CF8"/>
<path d="M400.859 175.725L372.302 195.779L347.164 163.939C347.585 163.155 348.186 162.542 348.891 162.18C349.596 161.817 350.373 161.72 351.124 161.902L398.282 173.334C398.829 173.473 399.344 173.76 399.79 174.173C400.236 174.587 400.601 175.117 400.859 175.725Z" fill="url(#paint11_linear_93_78)"/>
<path d="M363.265 184.348L347.189 204.295L391.508 215.047L382.508 188.606L372.302 195.779L363.265 184.348Z" fill="url(#paint12_linear_93_78)"/>
</g>
<defs>
<linearGradient id="paint0_linear_93_78" x1="320.13" y1="234.862" x2="366.622" y2="325.335" gradientUnits="userSpaceOnUse">
<stop offset="0.01" stop-color="white"/>
<stop offset="1" stop-color="white" stop-opacity="0"/>
</linearGradient>
<linearGradient id="paint1_linear_93_78" x1="296.02" y1="263.869" x2="469.557" y2="352.943" gradientUnits="userSpaceOnUse">
<stop offset="0.01"/>
<stop offset="0.08" stop-opacity="0.69"/>
<stop offset="0.21" stop-opacity="0.32"/>
<stop offset="1" stop-opacity="0"/>
</linearGradient>
<linearGradient id="paint2_linear_93_78" x1="25728" y1="36638.8" x2="-7626.83" y2="24517.3" gradientUnits="userSpaceOnUse">
<stop offset="0.01"/>
<stop offset="0.08" stop-opacity="0.69"/>
<stop offset="0.21" stop-opacity="0.32"/>
<stop offset="1" stop-opacity="0"/>
</linearGradient>
<linearGradient id="paint3_linear_93_78" x1="18525.2" y1="6749.15" x2="17790.6" y2="13154.2" gradientUnits="userSpaceOnUse">
<stop offset="0.01"/>
<stop offset="0.08" stop-opacity="0.69"/>
<stop offset="0.21" stop-opacity="0.32"/>
<stop offset="1" stop-opacity="0"/>
</linearGradient>
<linearGradient id="paint4_linear_93_78" x1="12254.3" y1="4941.98" x2="15199.2" y2="8982.07" gradientUnits="userSpaceOnUse">
<stop offset="0.01"/>
<stop offset="0.08" stop-opacity="0.69"/>
<stop offset="0.21" stop-opacity="0.32"/>
<stop offset="1" stop-opacity="0"/>
</linearGradient>
<linearGradient id="paint5_linear_93_78" x1="10153.5" y1="843.505" x2="10278.1" y2="-320.121" gradientUnits="userSpaceOnUse">
<stop offset="0.01"/>
<stop offset="0.08" stop-opacity="0.69"/>
<stop offset="0.21" stop-opacity="0.32"/>
<stop offset="1" stop-opacity="0"/>
</linearGradient>
<linearGradient id="paint6_linear_93_78" x1="11237.4" y1="5142.33" x2="13034.6" y2="8157.32" gradientUnits="userSpaceOnUse">
<stop offset="0.01"/>
<stop offset="0.08" stop-opacity="0.69"/>
<stop offset="0.21" stop-opacity="0.32"/>
<stop offset="1" stop-opacity="0"/>
</linearGradient>
<linearGradient id="paint7_linear_93_78" x1="5971.05" y1="2434.17" x2="6220.75" y2="3045.45" gradientUnits="userSpaceOnUse">
<stop offset="0.01"/>
<stop offset="0.08" stop-opacity="0.69"/>
<stop offset="0.21" stop-opacity="0.32"/>
<stop offset="1" stop-opacity="0"/>
</linearGradient>
<linearGradient id="paint8_linear_93_78" x1="17458.8" y1="22899.6" x2="4838.77" y2="31127.4" gradientUnits="userSpaceOnUse">
<stop offset="0.01"/>
<stop offset="0.08" stop-opacity="0.69"/>
<stop offset="0.21" stop-opacity="0.32"/>
<stop offset="1" stop-opacity="0"/>
</linearGradient>
<linearGradient id="paint9_linear_93_78" x1="31278.9" y1="5190.2" x2="32689.7" y2="12103.7" gradientUnits="userSpaceOnUse">
<stop offset="0.01" stop-color="white"/>
<stop offset="1" stop-color="white" stop-opacity="0"/>
</linearGradient>
<linearGradient id="paint10_linear_93_78" x1="23635.5" y1="7843.59" x2="34557.5" y2="19117" gradientUnits="userSpaceOnUse">
<stop offset="0.01"/>
<stop offset="0.08" stop-opacity="0.69"/>
<stop offset="0.21" stop-opacity="0.32"/>
<stop offset="1" stop-opacity="0"/>
</linearGradient>
<linearGradient id="paint11_linear_93_78" x1="-28327" y1="-6369.98" x2="-29487.3" y2="-4482.51" gradientUnits="userSpaceOnUse">
<stop offset="0.01" stop-color="white"/>
<stop offset="1" stop-color="white" stop-opacity="0"/>
</linearGradient>
<linearGradient id="paint12_linear_93_78" x1="-24578.9" y1="-4740.17" x2="-25051.6" y2="512.751" gradientUnits="userSpaceOnUse">
<stop offset="0.01"/>
<stop offset="0.08" stop-opacity="0.69"/>
<stop offset="0.21" stop-opacity="0.32"/>
<stop offset="1" stop-opacity="0"/>
</linearGradient>
<clipPath id="clip0_93_78">
<rect width="507" height="469" fill="white"/>
</clipPath>
</defs>
</svg>
