<svg width="614" height="553" viewBox="0 0 614 553" fill="none" xmlns="http://www.w3.org/2000/svg">
<path d="M117.061 112.055C117.061 113.962 117.229 115.889 117.423 117.796C118.46 128.008 118.846 138.325 120.753 148.409C123.697 164.023 127.1 179.616 131.396 195.018C137.516 217.621 148.725 238.921 164.364 257.664C170.804 265.317 177.683 272.678 184.975 279.718C188.347 282.521 192.273 284.761 196.559 286.328C198.047 286.992 199.736 287.224 201.384 286.992C203.032 286.76 204.554 286.075 205.73 285.036C206.959 283.982 207.732 282.585 207.916 281.086C208.101 279.586 207.687 278.077 206.744 276.816C203.92 272.388 200.638 268.193 197.549 263.914C183.985 245.165 169.456 227.008 158.741 206.84C152.224 194.594 146.094 182.137 140.64 169.489C136.293 159.643 132.768 149.532 130.093 139.236C126.28 123.792 126.063 108.305 133.375 93.4538C137.891 84.7622 144.171 76.8652 151.911 70.1495C161.328 61.6759 171.86 54.2156 183.285 47.9257C201.227 37.7809 220.496 29.5722 240.677 23.4774C246.617 22.0273 252.643 20.8673 258.729 20.0029C259.946 19.871 261.173 19.8285 262.398 19.8758C261.505 21.6554 260.925 22.9689 260.177 24.2401C247.514 44.9221 239.655 67.6058 237.057 90.975C235.879 104.577 236.47 118.252 238.818 131.736C240.363 141.672 242.149 151.545 243.766 161.396C246.179 176.353 248.376 191.353 251.006 206.268C252.551 214.742 254.988 222.941 257.088 231.267C257.498 232.898 258.416 234.084 260.781 233.894C263.146 233.703 263.435 232.135 263.363 230.695C263.146 225.377 262.88 220.102 262.374 214.763C260.925 199.933 258.898 185.357 257.957 170.633C257.064 156.884 256.919 143.092 257.064 129.3C257.209 114.703 257.571 100.064 258.753 85.4879C260.008 70.0012 262.687 54.6204 269.469 40.087C278.375 21.0198 293.603 8.3084 316.724 3.45687C325.103 1.68634 333.636 0.538258 342.234 0.0247899C349.055 -0.103304 355.876 0.265177 362.628 1.12645C365.645 1.40186 366.465 2.90605 365.041 5.36359C363.279 8.35077 361.3 11.232 359.225 14.0709C349.865 27.0473 342.306 40.959 336.707 55.5101C332.677 65.8488 328.864 76.251 325.702 86.8014C321.415 101.474 319.658 116.628 320.489 131.758C321.261 147.753 322.323 163.748 323.554 179.722C324.048 183.266 325.029 186.744 326.474 190.082C327.295 192.2 329.612 192.518 331.157 190.59C332.467 189.085 333.3 187.301 333.57 185.421C333.956 179.065 334.077 172.709 334.004 166.354C333.86 153.134 333.208 139.914 333.353 126.715C333.463 111.057 337.062 95.5688 343.948 81.1237C348.437 71.7596 352.877 62.332 358.139 53.2857C363.755 42.8587 373.07 34.3105 384.687 28.9221C394.258 24.7535 404.564 22.0387 415.168 20.8927C432.424 18.9013 449.463 20.8927 466.574 22.8418C476.542 23.9646 486.509 25.829 496.718 24.346C509.413 22.524 518.439 16.9522 522.759 5.95679C522.983 5.51789 523.241 5.09315 523.532 4.68564C524.328 6.3805 525.004 7.69402 525.583 8.92279C532.568 24.2979 542.529 38.4968 555.027 50.8917C565.308 61.3574 575.083 72.0774 581.575 84.7888C587.922 97.0341 588.646 109.174 580.875 121.186C576.548 127.457 571.059 133.049 564.632 137.732C551.716 147.626 537.525 156.158 522.349 163.155C501.521 173.133 480.379 182.582 459.334 192.2C454.845 194.319 450.332 196.226 445.915 198.365C444.883 198.695 444.009 199.324 443.438 200.148C442.868 200.972 442.635 201.943 442.778 202.899C443.212 205.124 445.481 205.569 447.605 206.077C453.373 207.475 458.803 205.802 464.089 204.34C484.606 198.922 504.391 191.562 523.097 182.391C540.233 173.449 556.124 162.784 570.449 150.613C579.836 142.958 588.185 134.377 595.331 125.042C596.562 123.41 598.01 121.885 599.41 120.338C599.893 119.942 600.418 119.587 600.979 119.279C601.582 121.61 602.234 123.516 602.62 125.635C605.781 142.223 608.943 158.833 611.984 175.442C613.729 184.274 614.344 193.249 613.818 202.2C613.118 212.2 607.978 220.187 600.761 227.623C590.287 238.576 576.796 244.974 561.881 249.635C538.625 257.218 514.439 262.387 489.816 265.037C468.095 267.155 446.374 269.062 424.798 271.096C417.92 271.753 411.041 272.431 404.187 273.32C401.693 273.634 399.286 274.352 397.092 275.439C396.073 275.841 395.215 276.501 394.629 277.336C394.043 278.171 393.756 279.141 393.806 280.12C393.855 281.099 394.238 282.043 394.906 282.829C395.574 283.615 396.495 284.207 397.55 284.528C400.083 285.591 402.852 286.148 405.659 286.159C418.837 285.989 432.038 285.926 445.191 285.078C460.275 284.104 475.359 282.684 490.347 280.841C510.207 278.641 529.819 274.963 548.969 269.846C568.59 264.359 585.171 254.507 600.979 243.173C604.237 240.843 607.543 238.555 610.826 236.267C610.97 236.267 611.188 236.267 611.912 236.012C611.925 239.352 611.739 242.69 611.357 246.012C609.74 255.821 608.171 265.672 605.95 275.397C603.127 287.79 600.375 300.247 596.297 312.366C590.818 329.187 579.596 342.026 560.264 348.657C544.191 354.207 527.465 355.881 510.499 356.22C482.895 356.59 455.3 355.089 427.959 351.729C412.948 349.97 397.985 347.852 382.973 346.072C379.531 345.765 376.062 345.765 372.619 346.072C370.854 346.236 369.133 346.659 367.527 347.322C365.114 348.297 364.341 350.33 366.344 352.004C368.603 353.953 371.192 355.582 374.019 356.834C382.852 360.563 392.53 361.368 402.087 362.364C432.779 365.282 463.668 366.288 494.522 365.372C513.514 364.966 532.407 362.836 550.9 359.017C560.192 357.11 569.508 355.288 578.799 353.402L582.588 352.597C580.368 355.648 578.582 358.233 576.651 360.733C567.239 372.787 558.068 385.011 548.245 396.748C539.171 407.595 529.589 418.125 519.839 428.527C513.125 436.114 504.007 441.789 493.629 444.84C486.278 446.754 478.658 447.759 470.991 447.827C456.65 448.006 442.362 446.278 428.611 442.7C411.492 438.463 394.477 433.957 377.567 429.184C364.679 425.497 352.081 421.048 339.29 417.044C332.605 414.926 325.895 412.807 319.065 411.155C315.767 410.251 312.298 409.927 308.856 410.201C304.029 410.71 303.523 411.981 304.778 415.604C306.564 420.709 311.173 423.908 315.542 427.001C334.318 440.264 355.774 448.547 378.774 454.056C403.555 459.743 429.115 462.388 454.724 461.916C464.789 461.788 474.853 461.725 485.134 461.619C484.755 462.146 484.344 462.655 483.903 463.144C468.191 478.356 449.56 490.474 429.938 501.385C414.155 510.155 397.936 518.333 381.67 526.405C360.634 536.88 337.917 544.508 314.287 549.031C293.458 553.207 271.949 554.096 250.765 551.658C225.457 548.647 201.732 539.122 182.585 524.286C172.497 516.617 164.147 507.55 160.551 496.003C155.5 481.126 157.311 465.102 165.595 451.386C171.655 442.067 178.77 433.308 186.833 425.243C195.594 415.837 204.548 406.557 213.236 397.087C215.35 394.81 216.984 392.22 218.063 389.439C218.399 388.549 218.458 387.596 218.232 386.679C218.007 385.762 217.507 384.915 216.783 384.226C216.059 383.536 215.137 383.029 214.115 382.757C213.092 382.486 212.005 382.459 210.967 382.681C207.879 383.291 204.948 384.405 202.327 385.965C193.108 391.41 184.226 397.32 174.935 402.701C161.613 410.434 148.387 418.379 133.448 423.697C113.73 430.73 93.6261 431.917 73.5463 425.116C54.5825 419.08 38.4147 407.725 27.5462 392.808C22.8581 386.067 19.2369 378.797 16.7822 371.198C13.5724 361.877 10.1936 352.576 6.38032 343.424C1.96094 333.112 -0.161103 322.151 0.129522 311.137C0.443269 301.9 -0.280762 292.599 0.129522 283.362C0.670883 267.249 3.7158 251.276 9.17991 235.885C13.0368 225.391 18.3287 215.347 24.9396 205.971C32.9764 194.615 40.989 183.154 50.0877 172.434C58.8967 162.053 68.8642 152.414 78.711 142.774C85.2514 136.418 92.3469 130.38 99.4907 124.47C104.824 120.042 110.617 115.995 116.216 111.758L117.061 112.055Z" fill="url(#paint0_linear_15_619)" fill-opacity="0.2"/>
<defs>
<linearGradient id="paint0_linear_15_619" x1="844.103" y1="222.365" x2="-95.0398" y2="238.146" gradientUnits="userSpaceOnUse">
<stop stop-color="#374AFF"/>
<stop offset="0.997192" stop-color="#3D3D4E" stop-opacity="0"/>
</linearGradient>
</defs>
</svg>
