<svg width="950" height="789" viewBox="0 0 950 789" fill="none" xmlns="http://www.w3.org/2000/svg">
<path d="M623.944 702.501C621.019 701.689 618.127 700.651 615.278 699.59C600.021 693.906 584.342 689.016 569.624 682.268C546.832 671.829 524.254 660.808 502.322 648.72C470.063 631.217 441.819 607.717 419.252 579.603C410.06 568.054 401.489 556.063 393.574 543.679C390.609 538.144 388.727 532.137 388.019 525.951C387.59 523.753 387.902 521.479 388.911 519.457C389.92 517.434 391.573 515.767 393.633 514.695C395.738 513.562 398.187 513.162 400.561 513.562C402.935 513.963 405.087 515.139 406.648 516.89C412.324 522.41 417.46 528.422 422.804 534.221C446.202 559.666 468.307 586.101 495.011 608.484C511.22 622.087 527.907 635.283 545.154 647.69C558.541 657.478 572.66 666.322 587.398 674.149C609.586 685.635 633.263 692.509 658.947 689.418C674.071 687.306 688.675 682.583 702.045 675.479C718.776 666.963 734.394 656.581 748.569 644.551C771.24 625.774 791.466 604.462 808.81 581.077C813.387 574.048 817.553 566.783 821.289 559.316C821.974 557.806 822.525 556.245 822.937 554.648C819.853 555.04 817.608 555.226 815.361 555.648C778.612 563.144 740.694 563.603 703.807 556.997C682.47 552.721 661.721 546.138 641.96 537.373C627.326 531.154 612.885 524.651 598.409 518.374C576.415 508.899 554.269 499.684 532.425 489.947C520.034 484.35 508.419 477.721 496.475 471.473C494.134 470.25 492.677 468.564 493.906 465.601C495.135 462.637 497.656 462.932 499.837 463.638C507.911 466.182 515.9 468.77 523.891 471.696C546.073 479.875 567.635 488.691 589.855 496.172C610.599 503.176 631.704 509.235 652.924 514.921C675.379 520.95 697.985 526.718 720.818 531.402C745.078 536.38 769.74 539.481 794.725 536.938C827.509 533.592 853.044 519.4 869.643 491.7C875.678 481.668 880.819 471.171 885.011 460.321C887.909 451.595 890.045 442.656 891.397 433.598C892.169 429.597 890.186 427.9 885.851 428.687C880.57 429.683 875.365 431.004 870.187 432.467C846.57 438.991 822.23 442.799 797.686 443.81C780.226 444.597 762.755 445.077 745.314 444.654C721.103 443.925 697.155 439.735 674.269 432.223C650.032 424.418 625.909 416.24 601.886 407.854C596.643 405.709 591.694 402.965 587.146 399.683C584.22 397.725 584.65 394.607 588.22 393.439C591.049 392.393 594.116 392.08 597.107 392.533C607.013 394.743 616.813 397.293 626.536 400.093C646.764 405.908 666.79 412.376 687.1 417.81C711.17 424.335 736.36 426.296 761.251 423.583C777.397 421.791 793.622 420.089 809.586 417.167C827.809 414.377 844.614 406.025 857.482 393.364C867.668 382.818 875.915 370.706 881.873 357.542C891.762 336.175 895.454 313.392 899.239 290.533C901.463 277.223 902.549 263.598 908.868 251.086C916.69 235.519 928.814 226.272 947.396 225.392C948.158 225.291 948.912 225.14 949.653 224.939C947.367 223.192 945.619 221.763 943.963 220.494C923.138 204.955 905.295 186.085 891.226 164.718C879.238 147.026 866.66 129.878 849.726 116.108C833.451 102.722 815.111 96.6214 793.601 101.511C782.266 104.41 771.511 109.097 761.781 115.376C741.485 127.791 722.774 142.427 706.028 158.985C682.469 181.55 659.599 204.744 636.507 227.741C631.479 232.618 626.766 237.616 621.734 242.391C620.819 243.58 619.508 244.437 618.018 244.821C616.527 245.204 614.945 245.091 613.535 244.5C610.293 242.993 610.509 239.883 610.57 236.933C610.708 228.911 615.427 222.633 619.763 216.452C636.201 192.345 655.328 170.007 676.808 149.831C697.315 131.578 719.972 115.662 744.32 102.403C759.783 93.578 776.255 86.4828 793.41 81.2584C796.4 80.3685 799.314 79.1537 802.242 78.0102C803.041 77.5574 803.794 77.0321 804.488 76.4417C801.151 74.6727 798.484 73.0219 795.386 71.6227C771.184 60.4892 746.951 49.3467 722.669 38.3595C709.809 32.353 696.281 27.7395 682.338 24.6048C666.718 21.248 652.427 24.465 638.159 30.5886C617.205 39.4091 602.045 54.0529 588.987 71.2695C568.143 97.9794 550.634 126.915 536.817 157.486C524.965 184.547 513.438 211.698 501.773 238.609C498.041 247.184 494.277 255.75 490.198 264.195C488.729 267.273 486.674 270.065 484.137 272.428C483.118 273.568 481.764 274.391 480.251 274.79C478.739 275.189 477.137 275.145 475.654 274.665C474.17 274.184 472.874 273.289 471.933 272.094C470.991 270.9 470.448 269.462 470.373 267.967C469.745 264.254 469.987 260.452 471.081 256.833C476.56 239.941 481.885 222.973 488.394 206.401C495.862 187.397 504.013 168.583 512.777 150.073C524.017 125.442 537.427 101.761 552.862 79.2861C569.051 56.3626 590.733 39.2123 614.384 23.6876C619.25 20.4855 624.071 17.2032 628.881 13.9519C628.938 13.7655 629.024 13.4859 629.701 12.662C624.582 11.2233 619.388 10.0406 614.138 9.11877C598.447 7.02382 582.709 4.84859 566.909 3.56644C546.774 1.92442 526.57 0.162119 506.361 0.25303C478.38 0.143304 454.237 9.12421 436.407 31.1877C421.525 49.5168 412.334 70.3356 405.095 92.0334C393.596 127.412 384.973 163.577 379.301 200.205C376.055 220.279 373.38 240.445 370.167 260.528C369.275 265.09 367.901 269.556 366.067 273.857C365.116 276.059 363.786 278.095 362.132 279.88C359.681 282.572 356.254 282.701 354.48 279.409C352.384 275.672 350.909 271.645 350.107 267.472C347.884 254.513 350.481 241.711 352.737 228.983C360.413 188.229 371.102 148.035 384.725 108.705C392.869 84.4279 403.619 61.0123 416.803 38.8316C423.408 27.6815 429.892 16.4643 436.465 5.30529L439.201 0.770113C433.64 2.32954 428.967 3.52813 424.367 4.94927C402.143 11.9336 379.754 18.5352 357.855 26.1831C337.618 33.2467 317.668 41.0981 297.846 49.2211C283.546 54.6337 271.226 63.9562 262.436 76.017C256.588 84.6659 252.028 94.0466 248.888 103.889C242.934 122.274 239.928 141.405 239.972 160.63C239.695 184.474 239.87 208.296 240.499 232.099C241.052 250.26 242.889 268.373 243.968 286.545C244.572 296.053 245.166 305.593 244.996 315.089C245.076 319.72 244.2 324.324 242.417 328.638C239.725 334.635 237.574 334.746 232.512 331.588C225.385 327.115 222.302 319.818 219.285 312.878C206.371 283.058 202.157 251.91 202.813 219.955C203.9 185.63 209.963 151.598 220.829 118.831C225.009 105.929 229.092 92.9997 233.326 79.809C232.367 80.0727 231.423 80.3849 230.498 80.7441C200.936 94.4937 174.964 113.32 150.452 133.934C130.744 150.519 111.774 167.916 92.9468 185.42C68.543 208.041 47.8427 234.038 31.5454 262.533C16.8904 287.57 7.00805 314.881 2.36015 343.19C-3.04112 377.053 2.17885 411.651 17.3612 442.618C25.1341 458.871 35.7405 473.482 52.0331 483.028C72.8609 495.865 98.1655 500.356 122.491 495.532C139.19 491.699 155.448 486.268 171.016 479.322C188.918 472.049 206.702 464.473 224.674 457.32C229.005 455.569 233.626 454.567 238.32 454.363C239.819 454.309 241.305 454.64 242.622 455.32C243.94 456 245.042 457.005 245.813 458.231C246.585 459.457 246.998 460.859 247.009 462.291C247.021 463.723 246.631 465.133 245.88 466.375C243.721 470.092 240.851 473.391 237.42 476.1C225.415 485.65 212.828 494.567 200.892 504.238C183.751 518.096 166.324 531.739 152.249 548.707C133.648 571.097 123.866 596.473 126.35 625.219C128.101 652.202 139.123 677.851 157.708 698.195C166.195 707.1 175.916 714.858 186.603 721.253C199.635 729.355 212.568 737.665 225.101 746.471C239.174 756.551 255.152 763.95 272.168 768.266C286.465 771.795 300.449 776.687 314.785 780.092C339.724 786.256 365.439 789.138 391.218 788.657C408.847 788.16 426.355 785.624 443.359 781.105C463.966 775.594 484.725 770.159 504.777 763.011C524.194 756.09 542.932 747.363 561.622 738.791C573.965 733.077 586.039 726.514 597.937 719.834C606.844 714.853 615.346 709.119 624.065 703.715L623.944 702.501Z" fill="#EBEBEB" fill-opacity="0.45"/>
</svg>
