<svg id="Layer_1" data-name="Layer 1" xmlns="http://www.w3.org/2000/svg" viewBox="0 0 1053.78 691.13"><defs><style>.cls-1,.cls-2{fill:none;stroke:#ffe3db;stroke-miterlimit:10;}.cls-2{stroke-width:2px;}.cls-3{fill:#fff;}</style></defs><path class="cls-1" d="M385.5,197.5" transform="translate(98.55 46.99)"/><path class="cls-2" d="M-6.91,56.17c0,.9.07,1.81.15,2.71.43,4.82.59,9.69,1.38,14.45,1.22,7.37,2.63,14.73,4.41,22A82.21,82.21,0,0,0,12.69,124.9a132.64,132.64,0,0,0,8.54,10.41,15.85,15.85,0,0,0,4.8,3.12,3.27,3.27,0,0,0,3.8-.61,3.07,3.07,0,0,0,.42-3.88c-1.17-2.09-2.53-4.07-3.81-6.09C20.82,119,14.8,110.43,10.36,100.91c-2.7-5.78-5.24-11.66-7.5-17.63A102.79,102.79,0,0,1-1.51,69C-3.09,61.71-3.18,54.4-.15,47.39a37.13,37.13,0,0,1,7.68-11,70.48,70.48,0,0,1,13-10.49A110,110,0,0,1,44.31,14.36a69.12,69.12,0,0,1,7.48-1.64,9.13,9.13,0,0,1,1.52-.06c-.37.84-.61,1.46-.92,2.06a83.71,83.71,0,0,0-9.58,31.5,84.8,84.8,0,0,0,.73,19.24c.64,4.69,1.38,9.35,2.05,14,1,7.06,1.91,14.14,3,21.18.64,4,1.65,7.87,2.52,11.8.17.77.55,1.33,1.53,1.24s1.1-.83,1.07-1.51c-.09-2.51-.2-5-.41-7.52-.6-7-1.44-13.88-1.83-20.83-.37-6.49-.43-13-.37-19.51.06-6.89.21-13.8.7-20.68.52-7.31,1.63-14.57,4.44-21.43,3.69-9,10-15,19.58-17.29A63.61,63.61,0,0,1,86.39,3.29a51.15,51.15,0,0,1,8.45.52c1.25.13,1.59.84,1,2-.73,1.41-1.55,2.77-2.41,4.11A91,91,0,0,0,84.1,29.48c-1.67,4.88-3.25,9.79-4.56,14.77a71.55,71.55,0,0,0-2.16,21.22c.32,7.55.76,15.1,1.27,22.64A20.9,20.9,0,0,0,79.86,93c.34,1,1.3,1.15,1.94.24a5.06,5.06,0,0,0,1-2.44c.16-3,.21-6,.18-9-.06-6.24-.33-12.48-.27-18.71a56.66,56.66,0,0,1,4.39-21.52c1.86-4.42,3.7-8.87,5.88-13.14a25.18,25.18,0,0,1,11-11.5,39.19,39.19,0,0,1,12.63-3.79c7.15-.94,14.21,0,21.3.92,4.13.53,8.26,1.41,12.49.71,5.26-.86,9-3.49,10.79-8.68a4.9,4.9,0,0,1,.32-.6c.33.8.61,1.42.85,2A67.76,67.76,0,0,0,174.56,27.3c4.26,4.94,8.31,10,11,16,2.63,5.78,2.93,11.51-.29,17.18a31.06,31.06,0,0,1-6.73,7.81,91,91,0,0,1-17.52,12C152.39,85,143.63,89.46,134.91,94c-1.86,1-3.73,1.9-5.56,2.91a2,2,0,0,0-1.3,2.14c.18,1.05,1.12,1.26,2,1.5,2.39.66,4.64-.13,6.83-.82a122.54,122.54,0,0,0,24.45-10.36,106.35,106.35,0,0,0,19.62-15A69,69,0,0,0,191.26,62.3c.51-.77,1.11-1.49,1.69-2.22a4.26,4.26,0,0,1,.65-.5c.25,1.1.52,2,.68,3,1.31,7.83,2.62,15.67,3.88,23.51a56.8,56.8,0,0,1,.76,12.63c-.29,4.72-2.42,8.49-5.41,12-4.34,5.17-9.93,8.19-16.11,10.39a131.83,131.83,0,0,1-29.86,7.27c-9,1-18,1.9-26.94,2.86-2.85.31-5.7.63-8.54,1.05a8.41,8.41,0,0,0-2.94,1,2.31,2.31,0,0,0,.19,4.29,7.87,7.87,0,0,0,3.36.77c5.46-.08,10.93-.11,16.38-.51,6.25-.46,12.5-1.13,18.71-2a146.32,146.32,0,0,0,24.29-5.19c8.13-2.59,15-7.24,21.55-12.59,1.35-1.1,2.72-2.18,4.08-3.26.06,0,.15,0,.45-.12a45.36,45.36,0,0,1-.23,4.72c-.67,4.63-1.32,9.28-2.24,13.87-1.17,5.85-2.31,11.73-4,17.45-2.27,7.94-6.92,14-14.93,17.13-6.66,2.62-13.59,3.41-20.62,3.57a222.19,222.19,0,0,1-34.2-2.12c-6.22-.83-12.42-1.83-18.64-2.67a21.21,21.21,0,0,0-4.29,0,6.59,6.59,0,0,0-2.11.59c-1,.46-1.32,1.42-.49,2.21a12.69,12.69,0,0,0,3.18,2.28c3.66,1.76,7.67,2.14,11.63,2.61a270.71,270.71,0,0,0,38.3,1.42,114.14,114.14,0,0,0,23.36-3c3.85-.9,7.71-1.76,11.56-2.65l1.57-.38c-.92,1.44-1.66,2.66-2.46,3.84-3.9,5.69-7.7,11.46-11.77,17-3.76,5.12-7.73,10.09-11.77,15a23,23,0,0,1-10.86,7.7,34.2,34.2,0,0,1-9.38,1.41,58.84,58.84,0,0,1-17.56-2.42q-10.64-3-21.15-6.38c-5.34-1.74-10.56-3.84-15.86-5.73-2.77-1-5.55-2-8.38-2.78a10.9,10.9,0,0,0-4.23-.45c-2,.24-2.21.84-1.69,2.55.74,2.41,2.65,3.92,4.46,5.38C83.11,211.09,92,215,101.53,217.6A114.89,114.89,0,0,0,133,221.31c4.17-.06,8.34-.09,12.6-.14a8.3,8.3,0,0,1-.51.72c-6.51,7.18-14.23,12.9-22.36,18.05-6.54,4.14-13.26,8-20,11.81a99.58,99.58,0,0,1-27.92,10.68,74.64,74.64,0,0,1-26.32,1.24,53.56,53.56,0,0,1-28.25-12.92c-4.18-3.62-7.64-7.9-9.13-13.35a27.93,27.93,0,0,1,2.09-21.06A75.31,75.31,0,0,1,22,204c3.63-4.44,7.34-8.82,10.94-13.29a11.67,11.67,0,0,0,2-3.61A2.48,2.48,0,0,0,32,183.91a10.48,10.48,0,0,0-3.58,1.55c-3.82,2.57-7.5,5.36-11.35,7.9-5.52,3.65-11,7.4-17.19,9.91-8.17,3.32-16.5,3.88-24.82.67A38,38,0,0,1-44,188.69a41.09,41.09,0,0,1-4.46-10.2c-1.33-4.4-2.73-8.79-4.31-13.11a40.61,40.61,0,0,1-2.59-15.24c.13-4.36-.17-8.75,0-13.11a83.6,83.6,0,0,1,3.75-22.41,64.4,64.4,0,0,1,6.53-14.12c3.33-5.36,6.65-10.77,10.42-15.83,3.65-4.9,7.78-9.45,11.86-14,2.71-3,5.65-5.85,8.61-8.64,2.21-2.09,4.61-4,6.93-6Z" transform="translate(98.55 46.99)"/><path class="cls-3" d="M462,277.8l3.72-1.94.17.33-3.7,2Z" transform="translate(98.55 46.99)"/><path class="cls-2" d="M732.2,124.11c.79.24,1.57.51,2.36.72,4.24,1.13,8.44,2.51,12.75,3.31,6.66,1.25,13.38,2.33,20.12,3.07a74.7,74.7,0,0,0,29.47-2.46,120,120,0,0,0,11.52-4,14.37,14.37,0,0,0,4.16-3.13,3,3,0,0,0,.66-3.43,2.78,2.78,0,0,0-3.18-1.56c-2.14.35-4.25.89-6.38,1.36-9.27,2-18.47,4.51-28,5.34-5.77.51-11.57.85-17.37.92a91.84,91.84,0,0,1-13.57-.72c-6.67-.9-12.93-3.09-18-7.86a33.82,33.82,0,0,1-7-10,62.78,62.78,0,0,1-4.9-14.34,98.69,98.69,0,0,1-2.45-23.86,62,62,0,0,1,.91-6.88,10.71,10.71,0,0,1,.43-1.32c.6.58,1.06,1,1.47,1.42a75.83,75.83,0,0,0,23.89,18A76.85,76.85,0,0,0,755.79,84c4.2.91,8.41,1.72,12.61,2.6,6.33,1.33,12.64,2.77,19,4,3.58.68,7.23,1,10.85,1.51a1.2,1.2,0,0,0,1.53-.92c.22-.88-.37-1.19-.95-1.38-2.17-.71-4.35-1.39-6.55-2-6.11-1.64-12.28-3.08-18.33-4.9-5.65-1.71-11.22-3.68-16.75-5.75-5.86-2.19-11.71-4.46-17.42-7-6.07-2.72-11.92-5.91-16.89-10.45-6.5-5.92-9.68-13.22-8.67-22.06a58.64,58.64,0,0,1,1.86-9.48,47,47,0,0,1,3.07-7c.5-1,1.21-1.1,2-.26,1,1.06,1.89,2.19,2.76,3.33a82,82,0,0,0,13.81,14.05c3.64,2.94,7.34,5.82,11.18,8.48a64.39,64.39,0,0,0,17.42,8.43q9.81,3.12,19.7,6a18.43,18.43,0,0,0,4.58.5c1,0,1.39-.75.81-1.58a4.47,4.47,0,0,0-1.78-1.57c-2.52-1.07-5.08-2.06-7.66-3-5.34-1.88-10.74-3.59-16-5.58a51.27,51.27,0,0,1-17-10.43c-3.2-2.95-6.42-5.9-9.39-9.09a22.81,22.81,0,0,1-6.38-13,35.55,35.55,0,0,1,.68-11.94c1.42-6.39,4.44-12.11,7.41-17.87C743-15.78,745-19,745.74-22.85c.89-4.75-.18-8.79-4-11.89a4.82,4.82,0,0,1-.42-.46c.79,0,1.4-.09,2-.1a61.3,61.3,0,0,0,20.66-4.3c5.54-2.1,11.14-4,17.11-4.44,5.74-.44,10.72,1.08,14.56,5.59a28.25,28.25,0,0,1,4.57,8.16A82.54,82.54,0,0,1,805-11.63c1.28,8.84,2.38,17.71,3.56,26.56.25,1.88.47,3.77.76,5.64a1.85,1.85,0,0,0,1.42,1.78c.95.17,1.42-.57,1.9-1.24,1.31-1.83,1.33-4,1.42-6.08A110.93,110.93,0,0,0,812.78-9a96.83,96.83,0,0,0-6.68-21.38A62,62,0,0,0,799-43c-.5-.68-.92-1.42-1.36-2.13a3.6,3.6,0,0,1-.23-.71c1,.12,1.9.18,2.77.34q10.64,2,21.26,4a51.71,51.71,0,0,1,11,3.27c3.93,1.72,6.49,4.71,8.6,8.36,3.06,5.3,3.9,11,3.86,17a119.26,119.26,0,0,1-3.08,27.73c-1.95,8-4,15.9-5.92,23.86-.63,2.53-1.24,5.06-1.77,7.6a7.82,7.82,0,0,0-.09,2.81,2.1,2.1,0,0,0,3.72,1.17,7,7,0,0,0,1.69-2.62c1.63-4.69,3.31-9.36,4.66-14.13,1.55-5.47,2.92-11,4.11-16.57a132.21,132.21,0,0,0,3.12-22.33c.32-7.74-1.5-15.07-4-22.29-.52-1.49-1-3-1.52-4.49a1.73,1.73,0,0,1,0-.42,41.59,41.59,0,0,1,4,1.66c3.74,2,7.5,4,11.13,6.22,4.63,2.81,9.28,5.62,13.65,8.8,6.06,4.4,9.78,10.24,10,18.05.16,6.49-1.31,12.65-3.36,18.7a201.8,201.8,0,0,1-12.43,28.5c-2.64,5.05-5.42,10-8.06,15.07a19.48,19.48,0,0,0-1.32,3.66,6,6,0,0,0-.15,2c.07,1,.8,1.57,1.74,1.1a11.47,11.47,0,0,0,2.92-2c2.64-2.57,4.21-5.88,5.84-9.11a244.58,244.58,0,0,0,13.1-32.22A103.53,103.53,0,0,0,887.45,7c.42-3.56.89-7.12,1.33-10.68.05-.41.09-.83.16-1.46.94,1.23,1.75,2.24,2.51,3.29,3.64,5.1,7.38,10.13,10.87,15.33,3.2,4.79,6.21,9.73,9.14,14.69a20.94,20.94,0,0,1,3.19,11.65,31.34,31.34,0,0,1-1.71,8.45,53.26,53.26,0,0,1-7.52,14.22q-5.83,8.15-12,16.05c-3.14,4-6.55,7.82-9.81,11.74-1.71,2.06-3.41,4.13-5,6.29a10.18,10.18,0,0,0-1.69,3.47c-.41,1.75,0,2.14,1.65,2.23,2.28.12,4.16-1,6-2.14a63.38,63.38,0,0,0,19-18.34,104.35,104.35,0,0,0,12.92-25.65c1.25-3.57,2.51-7.14,3.8-10.79a6.44,6.44,0,0,1,.45.66c4.11,7.78,6.58,16.14,8.45,24.67,1.5,6.87,2.72,13.8,3.86,20.74a90.32,90.32,0,0,1,.43,27.12,67.68,67.68,0,0,1-7.11,22.84,48.63,48.63,0,0,1-19.79,20.07c-4.39,2.45-9.11,4.06-14.22,3.64A25.29,25.29,0,0,1,875,156.76a68.14,68.14,0,0,1-7.83-11.37c-2.66-4.48-5.24-9-7.94-13.45a10.64,10.64,0,0,0-2.45-2.85,2.26,2.26,0,0,0-3.57,1.48,9.6,9.6,0,0,0,.21,3.54c1,4.06,2.24,8.06,3.21,12.13,1.4,5.84,2.89,11.69,3.11,17.74.3,8-1.81,15.27-7.13,21.37a34.57,34.57,0,0,1-18.94,11.57,37.45,37.45,0,0,1-10.09.63c-4.16-.23-8.34-.4-12.52-.4a36.72,36.72,0,0,1-13.79-2.52c-3.69-1.46-7.52-2.57-11.18-4.09a75.88,75.88,0,0,1-18-10.15,58.6,58.6,0,0,1-10-10c-3.54-4.51-7.12-9-10.26-13.8-3-4.63-5.64-9.57-8.26-14.47-1.74-3.25-3.23-6.63-4.7-10-1.09-2.54-2-5.18-2.93-7.77Z" transform="translate(98.55 46.99)"/><path class="cls-2" d="M429.91,80.11c0,.87.06,1.74.14,2.61.41,4.62.57,9.28,1.32,13.85,1.18,7.07,2.53,14.13,4.23,21.08A79,79,0,0,0,448.71,146a122.32,122.32,0,0,0,8.19,10,15,15,0,0,0,4.6,3,3.13,3.13,0,0,0,3.65-.58,2.93,2.93,0,0,0,.4-3.72c-1.12-2-2.42-3.91-3.66-5.85-5.38-8.47-11.16-16.71-15.42-25.83-2.59-5.55-5-11.19-7.19-16.92a97.45,97.45,0,0,1-4.19-13.73c-1.52-6.95-1.61-14,1.31-20.69a35.53,35.53,0,0,1,7.36-10.56,66.66,66.66,0,0,1,12.47-10.06A105,105,0,0,1,479,40a65.8,65.8,0,0,1,7.17-1.58,9.84,9.84,0,0,1,1.46,0c-.36.8-.59,1.4-.89,2a80.29,80.29,0,0,0-9.18,30.22A81.44,81.44,0,0,0,478.29,89c.62,4.49,1.33,9,2,13.45,1,6.77,1.83,13.56,2.92,20.31.61,3.8,1.58,7.55,2.42,11.32.16.74.53,1.28,1.46,1.19s1.05-.8,1-1.45c-.08-2.4-.19-4.81-.39-7.21-.58-6.66-1.38-13.31-1.76-20-.35-6.23-.41-12.48-.36-18.71.06-6.62.21-13.24.68-19.84.5-7,1.56-14,4.26-20.55,3.53-8.59,9.63-14.4,18.78-16.59a61.41,61.41,0,0,1,10.09-1.58,50.21,50.21,0,0,1,8.1.5c1.2.12,1.53.8,1,1.89-.7,1.35-1.49,2.66-2.31,3.94a87.43,87.43,0,0,0-9,18.8c-1.6,4.67-3.12,9.39-4.38,14.16A68.39,68.39,0,0,0,510.76,89c.3,7.24.72,14.48,1.21,21.71a19.78,19.78,0,0,0,1.16,4.74c.33,1,1.25,1.1,1.86.23a4.73,4.73,0,0,0,.92-2.34c.16-2.89.21-5.79.18-8.68-.06-6-.32-12-.26-17.94A54.42,54.42,0,0,1,520,66.11c1.78-4.25,3.55-8.51,5.64-12.61a24.13,24.13,0,0,1,10.54-11,37.71,37.71,0,0,1,12.11-3.64c6.86-.9,13.64,0,20.43.89,4,.5,7.92,1.34,12,.67,5-.83,8.67-3.35,10.35-8.32a5.41,5.41,0,0,1,.31-.58c.32.77.58,1.36.82,2a65.1,65.1,0,0,0,11.74,19c4.09,4.73,8,9.62,10.6,15.37,2.51,5.55,2.8,11-.28,16.48a29.89,29.89,0,0,1-6.46,7.49A87.59,87.59,0,0,1,591,103.28c-8.32,4.46-16.72,8.76-25.09,13.13-1.78.93-3.57,1.83-5.33,2.79a2,2,0,0,0-1.25,2.06c.18,1,1.08,1.21,1.92,1.44,2.3.63,4.45-.12,6.55-.79A117.14,117.14,0,0,0,591.27,112,101.68,101.68,0,0,0,610.09,97.6,64.92,64.92,0,0,0,620,86c.49-.74,1.07-1.43,1.62-2.13a5.06,5.06,0,0,1,.62-.48c.25,1.05.51,2,.66,2.88q1.89,11.26,3.72,22.55a54,54,0,0,1,.73,12.11c-.28,4.53-2.33,8.15-5.19,11.56-4.16,5-9.53,7.86-15.45,10a126.12,126.12,0,0,1-28.64,7c-8.61.94-17.23,1.82-25.84,2.75-2.74.29-5.47.59-8.19,1a7.93,7.93,0,0,0-2.82.92,2.22,2.22,0,0,0,.18,4.12,7.54,7.54,0,0,0,3.22.73c5.24-.08,10.49-.1,15.71-.49q9-.66,18-1.91a139.89,139.89,0,0,0,23.3-5c7.8-2.49,14.42-6.94,20.67-12.07,1.29-1.07,2.61-2.1,3.91-3.14a1.81,1.81,0,0,1,.43-.11,44.63,44.63,0,0,1-.22,4.53c-.64,4.44-1.27,8.9-2.15,13.3-1.12,5.61-2.22,11.25-3.79,16.74-2.19,7.61-6.64,13.41-14.33,16.43-6.38,2.51-13,3.27-19.78,3.42a213,213,0,0,1-32.8-2c-6-.8-11.91-1.76-17.88-2.56a20.91,20.91,0,0,0-4.11,0,6.29,6.29,0,0,0-2,.57c-1,.45-1.27,1.37-.47,2.13a12.4,12.4,0,0,0,3.05,2.18c3.51,1.69,7.36,2.05,11.16,2.5A258.92,258.92,0,0,0,580,194.83a109.12,109.12,0,0,0,22.4-2.91c3.7-.87,7.39-1.69,11.09-2.54L615,189c-.88,1.38-1.59,2.55-2.37,3.68-3.74,5.46-7.38,11-11.29,16.34-3.59,4.91-7.41,9.68-11.28,14.39a22.08,22.08,0,0,1-10.41,7.38,33.1,33.1,0,0,1-9,1.36,56.71,56.71,0,0,1-16.84-2.33q-10.2-2.85-20.28-6.12c-5.13-1.67-10.14-3.68-15.21-5.5-2.66-1-5.33-1.89-8-2.66a10.6,10.6,0,0,0-4.06-.43c-1.89.23-2.12.81-1.62,2.45.71,2.31,2.54,3.75,4.28,5.16,7.42,6,15.93,9.74,25.09,12.21a109.86,109.86,0,0,0,30.14,3.56l12.09-.13c-.18.24-.31.49-.49.69-6.25,6.89-13.65,12.37-21.45,17.31-6.27,4-12.72,7.69-19.19,11.33a95.55,95.55,0,0,1-26.78,10.24,71.7,71.7,0,0,1-25.25,1.2,51.39,51.39,0,0,1-27.1-12.4c-4-3.47-7.32-7.58-8.75-12.8a26.76,26.76,0,0,1,2-20.2,72.27,72.27,0,0,1,8.46-11.89c3.48-4.26,7-8.46,10.49-12.75a11.13,11.13,0,0,0,1.93-3.46,2.37,2.37,0,0,0-2.75-3,9.92,9.92,0,0,0-3.44,1.48c-3.66,2.47-7.19,5.14-10.88,7.58-5.3,3.5-10.57,7.09-16.49,9.5-7.84,3.19-15.83,3.73-23.81.64a36.55,36.55,0,0,1-18.34-14.62,39.67,39.67,0,0,1-4.27-9.78c-1.28-4.23-2.62-8.44-4.13-12.58a38.78,38.78,0,0,1-2.49-14.61c.12-4.19-.16-8.4,0-12.58a80.45,80.45,0,0,1,3.59-21.5,61.9,61.9,0,0,1,6.27-13.54c3.2-5.14,6.37-10.33,10-15.18s7.46-9.07,11.38-13.44c2.6-2.89,5.42-5.61,8.25-8.28,2.13-2,4.43-3.82,6.65-5.72Z" transform="translate(98.55 46.99)"/><path class="cls-2" d="M705.15,372.35c.06,1.1.08,2.2.18,3.29.52,5.83.71,11.71,1.67,17.47,1.48,8.91,3.18,17.82,5.33,26.59a99.47,99.47,0,0,0,16.53,35.78,157.78,157.78,0,0,0,10.32,12.6,19.49,19.49,0,0,0,5.81,3.78,4,4,0,0,0,4.6-.74,3.69,3.69,0,0,0,.5-4.69c-1.41-2.53-3.05-4.93-4.61-7.38C738.69,448.38,731.41,438,726,426.48c-3.27-7-6.34-14.12-9.07-21.34a122.24,122.24,0,0,1-5.29-17.32c-1.91-8.76-2-17.6,1.65-26.09a45,45,0,0,1,9.29-13.31,84.48,84.48,0,0,1,15.72-12.69,132.54,132.54,0,0,1,28.77-14,82.12,82.12,0,0,1,9-2,11.91,11.91,0,0,1,1.84-.06c-.45,1-.74,1.77-1.11,2.48a95.32,95.32,0,0,0-10.71,61.39c.77,5.66,1.67,11.31,2.49,17,1.22,8.54,2.3,17.1,3.68,25.62.77,4.79,2,9.52,3,14.27.21.93.67,1.61,1.85,1.5s1.33-1,1.3-1.82c-.11-3-.24-6.07-.5-9.1-.73-8.4-1.74-16.78-2.22-25.2-.44-7.85-.52-15.73-.45-23.59.08-8.34.26-16.7.85-25,.64-8.84,2-17.63,5.38-25.92,4.46-10.84,12.14-18.15,23.68-20.91a77.34,77.34,0,0,1,12.73-2,62.71,62.71,0,0,1,10.21.63c1.52.16,1.93,1,1.23,2.38-.88,1.71-1.88,3.36-2.91,5a108.77,108.77,0,0,0-11.3,23.7c-2,5.89-3.94,11.84-5.53,17.86a86.32,86.32,0,0,0-2.6,25.67c.38,9.13.91,18.26,1.53,27.38a25.08,25.08,0,0,0,1.46,6c.42,1.26,1.58,1.4,2.35.29a6,6,0,0,0,1.16-2.95q.28-5.46.22-10.94c-.07-7.54-.4-15.09-.33-22.63a68.46,68.46,0,0,1,5.32-26c2.24-5.36,4.47-10.74,7.1-15.9,3-5.9,7.26-10.86,13.31-13.91a47.2,47.2,0,0,1,15.26-4.58c8.66-1.14,17.2,0,25.77,1.11,5,.64,10,1.7,15.11.86,6.36-1,10.92-4.23,13-10.5a6.77,6.77,0,0,1,.38-.73c.41,1,.75,1.72,1,2.47a82.21,82.21,0,0,0,14.81,23.92c5.16,6,10.06,12.13,13.36,19.39,3.18,7,3.54,13.93-.35,20.79a37.91,37.91,0,0,1-8.14,9.44,110.62,110.62,0,0,1-21.19,14.51c-10.49,5.62-21.09,11.05-31.64,16.56-2.24,1.17-4.5,2.31-6.72,3.52a2.5,2.5,0,0,0-1.58,2.59c.22,1.27,1.37,1.53,2.43,1.82,2.89.8,5.6-.15,8.25-1,10.24-3.26,20.23-7.1,29.58-12.52a130,130,0,0,0,23.74-18.12,82.71,82.71,0,0,0,12.46-14.65c.62-.94,1.35-1.8,2-2.68a4.61,4.61,0,0,1,.78-.61c.31,1.33.64,2.46.83,3.62q2.37,14.22,4.69,28.45a68.44,68.44,0,0,1,.92,15.27c-.35,5.71-2.93,10.27-6.55,14.58-5.24,6.25-12,9.91-19.48,12.57A158.68,158.68,0,0,1,892,459.76c-10.86,1.19-21.73,2.3-32.59,3.46-3.44.37-6.89.76-10.32,1.26a10,10,0,0,0-3.56,1.17c-2.29,1.31-2.19,4,.23,5.19a9.39,9.39,0,0,0,4.06.93c6.61-.1,13.23-.14,19.81-.62q11.35-.82,22.63-2.41a176,176,0,0,0,29.39-6.27c9.84-3.14,18.19-8.75,26.07-15.23,1.63-1.33,3.28-2.64,4.93-3.95a2.59,2.59,0,0,1,.54-.14,55.89,55.89,0,0,1-.27,5.71c-.82,5.61-1.61,11.23-2.71,16.78-1.41,7.08-2.8,14.18-4.79,21.11-2.75,9.6-8.37,16.91-18.06,20.72-8.06,3.16-16.44,4.13-25,4.31A267.59,267.59,0,0,1,861,509.22c-7.52-1-15-2.21-22.55-3.23a27.17,27.17,0,0,0-5.18,0,7.66,7.66,0,0,0-2.55.72c-1.27.56-1.6,1.72-.59,2.68a15.77,15.77,0,0,0,3.84,2.75c4.43,2.13,9.28,2.59,14.07,3.16A328.84,328.84,0,0,0,894.38,517a137.39,137.39,0,0,0,28.26-3.68c4.65-1.09,9.31-2.13,14-3.19l1.91-.47c-1.11,1.74-2,3.22-3,4.64-4.72,6.89-9.31,13.87-14.24,20.6-4.54,6.2-9.35,12.21-14.23,18.15a27.89,27.89,0,0,1-13.13,9.31,41.56,41.56,0,0,1-11.36,1.71,71.23,71.23,0,0,1-21.24-2.93q-12.87-3.6-25.58-7.72c-6.46-2.1-12.78-4.64-19.18-6.93-3.35-1.2-6.72-2.39-10.14-3.36a13.3,13.3,0,0,0-5.12-.54c-2.38.29-2.67,1-2,3.08.9,2.91,3.2,4.74,5.4,6.51,9.36,7.53,20.09,12.29,31.63,15.4a138.57,138.57,0,0,0,38,4.49l15.24-.16a8.25,8.25,0,0,1-.62.86c-7.87,8.69-17.21,15.61-27,21.84-7.91,5-16,9.69-24.21,14.29a120.45,120.45,0,0,1-33.77,12.91,90.41,90.41,0,0,1-31.84,1.51,64.77,64.77,0,0,1-34.17-15.63c-5.07-4.39-9.24-9.56-11-16.15a33.72,33.72,0,0,1,2.52-25.47c2.88-5.47,6.78-10.23,10.67-15,4.39-5.37,8.88-10.67,13.23-16.08a14.37,14.37,0,0,0,2.44-4.37,3,3,0,0,0-3.48-3.79,12.63,12.63,0,0,0-4.33,1.87c-4.62,3.12-9.07,6.49-13.72,9.56-6.69,4.41-13.33,9-20.8,12-9.88,4-20,4.7-30,.81-9.6-3.7-17.56-9.64-23.12-18.44a49.76,49.76,0,0,1-5.39-12.34c-1.61-5.32-3.31-10.63-5.21-15.86A49.09,49.09,0,0,1,646.52,486c.16-5.28-.2-10.58,0-15.86a101,101,0,0,1,4.52-27.11A77.85,77.85,0,0,1,659,426c4-6.49,8-13,12.6-19.15,4.41-5.93,9.41-11.43,14.35-16.94,3.28-3.66,6.84-7.08,10.41-10.45,2.68-2.53,5.58-4.82,8.38-7.21Z" transform="translate(98.55 46.99)"/><path class="cls-2" d="M264.36,491.82c.9-.05,1.81-.07,2.71-.16,4.8-.45,9.66-.64,14.4-1.45,7.35-1.25,14.69-2.7,21.92-4.51a82.2,82.2,0,0,0,29.46-13.77,130.67,130.67,0,0,0,10.35-8.57,15.94,15.94,0,0,0,3.09-4.81,3.26,3.26,0,0,0-.62-3.79,3.05,3.05,0,0,0-3.88-.4c-2.08,1.18-4.05,2.54-6.06,3.83-8.78,5.65-17.33,11.7-26.8,16.18-5.76,2.72-11.62,5.28-17.57,7.57a102.26,102.26,0,0,1-14.26,4.43c-7.23,1.61-14.52,1.74-21.53-1.26a37,37,0,0,1-11-7.61A69.52,69.52,0,0,1,234,464.58a109,109,0,0,1-11.62-23.67,66.42,66.42,0,0,1-1.68-7.45,9.25,9.25,0,0,1-.06-1.52c.83.36,1.46.6,2,.91a83.51,83.51,0,0,0,31.49,9.4,84.47,84.47,0,0,0,19.2-.82c4.67-.66,9.32-1.43,14-2.12,7-1.05,14.1-2,21.11-3.14,4-.66,7.85-1.69,11.77-2.58.77-.17,1.33-.55,1.23-1.52S320.66,431,320,431c-2.5.1-5,.22-7.5.45-6.93.63-13.84,1.5-20.78,1.93-6.48.4-13,.49-19.47.46-6.88,0-13.77-.14-20.64-.6-7.3-.48-14.55-1.55-21.41-4.33-9-3.63-15-9.94-17.35-19.45a64.25,64.25,0,0,1-1.7-10.49,50.81,50.81,0,0,1,.49-8.43c.11-1.26.82-1.6,1.95-1,1.41.71,2.78,1.53,4.12,2.38a90,90,0,0,0,19.6,9.22c4.87,1.65,9.78,3.2,14.76,4.49a71.24,71.24,0,0,0,21.18,2c7.54-.34,15.06-.82,22.59-1.37a20.32,20.32,0,0,0,4.91-1.23c1-.35,1.15-1.31.23-1.94a5,5,0,0,0-2.43-.94c-3-.15-6-.19-9-.14-6.22.09-12.44.39-18.66.36a56.33,56.33,0,0,1-21.5-4.28c-4.42-1.83-8.87-3.64-13.14-5.8a25.09,25.09,0,0,1-11.53-10.92,39.11,39.11,0,0,1-3.84-12.57c-1-7.14,0-14.19.82-21.26.5-4.13,1.36-8.25.64-12.47-.89-5.25-3.53-9-8.71-10.73a4.87,4.87,0,0,1-.61-.31c.8-.35,1.41-.62,2-.87a67.88,67.88,0,0,0,19.67-12.31c4.9-4.28,10-8.35,16-11.1,5.75-2.65,11.47-3,17.15.2a31.26,31.26,0,0,1,7.82,6.68,90.63,90.63,0,0,1,12.05,17.42c4.69,8.64,9.21,17.36,13.8,26,1,1.84,1.92,3.71,2.93,5.53a2.06,2.06,0,0,0,2.14,1.29c1.05-.19,1.26-1.13,1.49-2,.65-2.38-.15-4.62-.85-6.8a122.48,122.48,0,0,0-10.46-24.36,106.28,106.28,0,0,0-15-19.5A68.29,68.29,0,0,0,269.51,294c-.77-.51-1.49-1.11-2.22-1.68a4.56,4.56,0,0,1-.5-.64c1.09-.26,2-.54,3-.7,7.82-1.34,15.63-2.69,23.45-4a57.16,57.16,0,0,1,12.6-.82c4.71.27,8.49,2.38,12.05,5.35,5.18,4.3,8.23,9.87,10.45,16a131.09,131.09,0,0,1,7.4,29.77c1,9,2,17.91,3,26.87.32,2.84.65,5.68,1.08,8.51a8.63,8.63,0,0,0,1,2.94,2.31,2.31,0,0,0,4.29-.22,7.8,7.8,0,0,0,.75-3.35c-.11-5.45-.17-10.92-.59-16.35-.49-6.23-1.18-12.47-2.08-18.66a145.77,145.77,0,0,0-5.29-24.22c-2.63-8.1-7.3-15-12.67-21.44-1.11-1.34-2.19-2.7-3.28-4.06a2.12,2.12,0,0,1-.12-.44,45.28,45.28,0,0,1,4.71.2c4.63.65,9.27,1.28,13.86,2.17,5.84,1.14,11.71,2.25,17.43,3.86,7.93,2.24,14,6.84,17.17,14.82,2.64,6.63,3.47,13.55,3.66,20.57a221.51,221.51,0,0,1-2,34.14c-.8,6.21-1.76,12.4-2.57,18.61a21.12,21.12,0,0,0,0,4.28,6.24,6.24,0,0,0,.6,2.1c.46,1.05,1.42,1.31,2.21.48a12.83,12.83,0,0,0,2.25-3.18c1.75-3.67,2.1-7.67,2.55-11.63A271,271,0,0,0,383,335.12a113.7,113.7,0,0,0-3.15-23.3c-.91-3.84-1.79-7.68-2.69-11.52l-.39-1.57c1.43.91,2.66,1.64,3.84,2.44,5.7,3.87,11.47,7.63,17.05,11.67,5.13,3.72,10.12,7.66,15,11.66a22.93,22.93,0,0,1,7.72,10.8,33.74,33.74,0,0,1,1.46,9.36,58.68,58.68,0,0,1-2.33,17.54c-1.94,7.08-4,14.14-6.27,21.13-1.71,5.34-3.77,10.56-5.64,15.85-1,2.78-1.94,5.56-2.73,8.38a10.89,10.89,0,0,0-.42,4.23c.24,2,.85,2.2,2.55,1.67,2.4-.75,3.9-2.66,5.35-4.48,6.18-7.75,10.06-16.62,12.58-26.16a114.53,114.53,0,0,0,3.55-31.38c-.08-4.16-.13-8.33-.2-12.58a8.3,8.3,0,0,1,.72.51c7.2,6.46,12.94,14.14,18.12,22.22,4.17,6.51,8.06,13.2,11.89,19.92a99.47,99.47,0,0,1,10.79,27.81,74.62,74.62,0,0,1,1.37,26.27,53.48,53.48,0,0,1-12.76,28.25c-3.6,4.19-7.85,7.66-13.27,9.17a27.88,27.88,0,0,1-21-2,75.66,75.66,0,0,1-12.41-8.75c-4.45-3.6-8.84-7.28-13.32-10.85a12,12,0,0,0-3.61-2,2.49,2.49,0,0,0-3.12,2.89,10.45,10.45,0,0,0,1.56,3.57c2.59,3.8,5.39,7.45,7.94,11.28,3.67,5.5,7.44,11,10,17.11,3.36,8.14,4,16.45.79,24.77a38,38,0,0,1-15.12,19.15,41.3,41.3,0,0,1-10.16,4.5c-4.38,1.35-8.76,2.77-13.06,4.36a40.42,40.42,0,0,1-15.19,2.66c-4.36-.1-8.74.21-13.09,0a83.63,83.63,0,0,1-22.38-3.63,64.13,64.13,0,0,1-14.12-6.45c-5.37-3.3-10.79-6.58-15.85-10.32s-9.47-7.72-14-11.78c-3-2.69-5.86-5.6-8.66-8.54-2.1-2.2-4-4.58-6-6.89Z" transform="translate(98.55 46.99)"/><path class="cls-2" d="M-51,443.48c0,.87,0,1.75.13,2.61.41,4.62.57,9.29,1.33,13.85C-48.38,467-47,474.07-45.32,481a78.86,78.86,0,0,0,13.1,28.38,124,124,0,0,0,8.19,10,15.3,15.3,0,0,0,4.61,3,3.14,3.14,0,0,0,3.64-.59,2.93,2.93,0,0,0,.4-3.72c-1.12-2-2.42-3.9-3.66-5.84-5.38-8.47-11.16-16.71-15.42-25.84-2.59-5.55-5-11.19-7.19-16.91a97.18,97.18,0,0,1-4.19-13.74c-1.51-6.95-1.61-14,1.31-20.68a35.53,35.53,0,0,1,7.36-10.56A67,67,0,0,1-24.7,414.45,104.73,104.73,0,0,1-1.89,403.39a65.8,65.8,0,0,1,7.17-1.58,9.91,9.91,0,0,1,1.46-.05c-.36.8-.59,1.4-.88,2A75.54,75.54,0,0,0-2.63,452.4c.61,4.49,1.33,9,2,13.46,1,6.77,1.83,13.56,2.92,20.31.61,3.8,1.58,7.55,2.42,11.32.16.73.53,1.27,1.46,1.18s1.06-.79,1-1.44c-.08-2.41-.19-4.82-.39-7.22C6.2,483.35,5.4,476.7,5,470c-.35-6.22-.41-12.47-.36-18.7.06-6.62.21-13.24.68-19.84.5-7,1.56-14,4.26-20.56,3.54-8.59,9.63-14.39,18.78-16.58a61.41,61.41,0,0,1,10.09-1.58,48,48,0,0,1,8.1.5c1.21.12,1.53.8,1,1.88a43.32,43.32,0,0,1-2.31,4,87.07,87.07,0,0,0-8.95,18.79c-1.61,4.68-3.13,9.39-4.38,14.17a68.36,68.36,0,0,0-2.07,20.35c.3,7.24.72,14.48,1.22,21.71a20.16,20.16,0,0,0,1.15,4.73c.33,1,1.26,1.11,1.87.23a4.89,4.89,0,0,0,.92-2.34c.15-2.88.2-5.78.17-8.67-.06-6-.32-12-.26-17.95a54.41,54.41,0,0,1,4.21-20.63c1.79-4.25,3.55-8.52,5.64-12.61a24.17,24.17,0,0,1,10.55-11,37.32,37.32,0,0,1,12.1-3.63c6.87-.91,13.64,0,20.43.88,4,.5,7.93,1.35,12,.68,5-.83,8.67-3.35,10.35-8.32a4.57,4.57,0,0,1,.31-.58c.32.77.59,1.36.82,2a65.26,65.26,0,0,0,11.74,19c4.09,4.74,8,9.62,10.6,15.38,2.52,5.54,2.8,11-.28,16.48a30.06,30.06,0,0,1-6.46,7.49,86.78,86.78,0,0,1-16.8,11.5c-8.32,4.46-16.72,8.77-25.09,13.14-1.77.92-3.57,1.82-5.32,2.79a2,2,0,0,0-1.26,2.05c.18,1,1.09,1.21,1.93,1.45,2.29.63,4.44-.13,6.54-.8a116.85,116.85,0,0,0,23.46-9.93A102.35,102.35,0,0,0,129.17,461a65.27,65.27,0,0,0,9.88-11.61c.49-.75,1.07-1.43,1.62-2.13a3.93,3.93,0,0,1,.63-.48c.24,1.05.5,1.95.65,2.87q1.89,11.28,3.72,22.56a54.49,54.49,0,0,1,.74,12.11c-.29,4.52-2.33,8.14-5.2,11.56-4.16,4.95-9.52,7.85-15.45,10a126,126,0,0,1-28.64,7c-8.61,1-17.23,1.83-25.84,2.75-2.73.3-5.47.6-8.19,1a8.14,8.14,0,0,0-2.82.92,2.22,2.22,0,0,0,.18,4.12,7.55,7.55,0,0,0,3.22.74c5.24-.08,10.49-.11,15.71-.49q9-.66,18-1.91a140.68,140.68,0,0,0,23.3-5c7.8-2.49,14.43-7,20.67-12.08,1.29-1.06,2.61-2.09,3.92-3.13.05,0,.13,0,.42-.11a44.33,44.33,0,0,1-.21,4.52c-.65,4.45-1.28,8.91-2.16,13.31-1.11,5.61-2.22,11.24-3.79,16.74-2.18,7.61-6.64,13.41-14.32,16.43-6.39,2.5-13,3.27-19.79,3.42a213,213,0,0,1-32.8-2c-6-.79-11.91-1.75-17.88-2.55a20.91,20.91,0,0,0-4.11,0,6.37,6.37,0,0,0-2,.57c-1,.44-1.27,1.36-.47,2.12a12.07,12.07,0,0,0,3,2.18c3.51,1.7,7.36,2.06,11.16,2.51A260.41,260.41,0,0,0,99,558.21a109.14,109.14,0,0,0,22.41-2.92c3.69-.86,7.39-1.69,11.08-2.53l1.51-.37c-.88,1.38-1.59,2.55-2.36,3.68-3.75,5.46-7.39,11-11.29,16.33-3.6,4.92-7.42,9.69-11.29,14.4a22.06,22.06,0,0,1-10.41,7.37,32.35,32.35,0,0,1-9,1.36,56.38,56.38,0,0,1-16.84-2.32q-10.2-2.85-20.28-6.12c-5.12-1.67-10.13-3.68-15.21-5.5-2.66-1-5.33-1.89-8-2.67a10.59,10.59,0,0,0-4.06-.42c-1.89.23-2.11.81-1.61,2.44.7,2.31,2.53,3.76,4.27,5.16,7.42,6,15.93,9.75,25.09,12.22a110.24,110.24,0,0,0,30.14,3.56l12.09-.13a7.44,7.44,0,0,1-.49.68c-6.24,6.89-13.65,12.38-21.45,17.32-6.27,4-12.72,7.68-19.19,11.33a95.55,95.55,0,0,1-26.78,10.24,71.7,71.7,0,0,1-25.25,1.19A51.35,51.35,0,0,1-25,630.12c-4-3.48-7.33-7.58-8.76-12.8a26.76,26.76,0,0,1,2-20.2,72.44,72.44,0,0,1,8.46-11.89c3.48-4.26,7-8.46,10.49-12.75A11.27,11.27,0,0,0-10.9,569a2.39,2.39,0,0,0-2.76-3,10.12,10.12,0,0,0-3.44,1.48c-3.66,2.47-7.19,5.15-10.88,7.58-5.3,3.5-10.57,7.1-16.49,9.51-7.84,3.18-15.83,3.72-23.81.64A36.6,36.6,0,0,1-86.62,570.6a40.11,40.11,0,0,1-4.27-9.79c-1.28-4.22-2.62-8.43-4.13-12.57a39,39,0,0,1-2.49-14.62c.12-4.19-.16-8.39,0-12.58a80.38,80.38,0,0,1,3.59-21.49A61.9,61.9,0,0,1-87.63,486c3.2-5.15,6.37-10.34,10-15.19,3.5-4.69,7.47-9.06,11.38-13.43,2.6-2.9,5.42-5.61,8.25-8.28,2.13-2,4.43-3.82,6.65-5.72Z" transform="translate(98.55 46.99)"/></svg>